<?xml version="1.0" encoding="UTF-8"?>
<svg width="880px" height="210px" viewBox="0 0 880 210" version="1.1" xmlns="http://www.w3.org/2000/svg" xmlns:xlink="http://www.w3.org/1999/xlink">
    <!-- Generator: Sketch 53.2 (72643) - https://sketchapp.com -->
    <title>Meadow.Foundation_Logo</title>
    <desc>Created with Sketch.</desc>
    <g id="Meadow.Foundation_Logo" stroke="none" stroke-width="1" fill="none" fill-rule="evenodd">
        <g id="meadow-logo-wordmark-mono-h" transform="translate(24.000000, 14.000000)" fill="#000000">
            <path d="M391.34,57.78 L391.34,95.57 L382.68,95.57 L382.68,58 C382.68,47 374.54,38.28 363.84,38.28 C353.14,38.28 344.84,46.99 344.84,58 L344.84,95.54 L336.31,95.54 L336.31,58 C336.31,47 327.91,38.28 317.31,38.28 C306.71,38.28 298.4,47 298.4,58 L298.4,95.54 L290,95.54 L290,31.51 L298.4,31.51 L298.4,41 C303.141958,34.4692086 310.69956,30.5735376 318.77,30.5 C328.31744,30.4942943 337.086259,35.7655893 341.56,44.2 C345.89,36 354.56,30.5 365.24,30.5 C380.13,30.49 391.34,42.53 391.34,57.78 Z" id="Path"></path>
            <path d="M460.67,71.87 L467.79,74.43 C464.48,83.43 453.41,96.08 436.22,95.96 C421.66959,95.7451416 408.917694,86.1721312 404.65,72.26 C403.772354,69.2526307 403.341087,66.1326819 403.37,63 C403.145966,45.543262 416.650876,30.9777954 434.074751,29.8839677 C451.498627,28.79014 466.719097,41.5522983 468.68,58.9 C468.782976,59.4470386 468.826562,60.0036 468.81,60.56 L413.18,70.72 C416.11103,81.001272 425.489153,88.1041806 436.18,88.14 C448.18,88.14 457.74,79.94 460.67,71.87 Z M411.78,60.87 C411.78,61.64 411.9,62.54 411.9,63.87 L459.26,55.29 C456.032326,44.8490283 446.378484,37.7292697 435.45,37.73 C422.733514,38.0740725 412.422892,48.1451154 411.78,60.85 L411.78,60.87 Z" id="Shape" fill-rule="nonzero"></path>
            <path d="M545.49,31.51 L545.49,95.57 L537.09,95.57 L537.09,85.19 C527.076397,96.569983 510.589251,99.6470257 497.144972,92.6450532 C483.700693,85.6430808 476.77056,70.3699849 480.35466,55.6414247 C483.938759,40.9128645 497.111685,30.5317171 512.27,30.49 C521.819328,30.4454051 530.901695,34.6169996 537.09,41.89 L537.09,31.51 L545.49,31.51 Z M536.84,63.51 C536.84,49.51 526.14,38.51 512.39,38.51 C498.582881,38.51 487.39,49.7028813 487.39,63.51 C487.39,77.3171187 498.582881,88.51 512.39,88.51 C526.14,88.52 536.84,77.51 536.84,63.54 L536.84,63.51 Z" id="Shape" fill-rule="nonzero"></path>
            <path d="M624.59,0.26 L624.59,95.57 L616.19,95.57 L616.19,85.19 C606.176397,96.569983 589.689251,99.6470257 576.244972,92.6450532 C562.800693,85.6430808 555.87056,70.3699849 559.45466,55.6414247 C563.038759,40.9128645 576.211685,30.5317171 591.37,30.49 C600.919328,30.4454051 610.001695,34.6169996 616.19,41.89 L616.19,0.26 L624.59,0.26 Z M615.94,63.54 C615.94,49.54 605.24,38.54 591.49,38.54 C577.74,38.54 566.92,49.54 566.92,63.54 C566.92,77.54 577.74,88.54 591.49,88.54 C605.24,88.54 615.94,77.51 615.94,63.54 Z" id="Shape" fill-rule="nonzero"></path>
            <path d="M638.26,63.54 C638.370298,45.4238906 653.126226,30.8168494 671.242522,30.8902698 C689.358818,30.9636901 703.995867,45.6898528 703.959324,63.8062612 C703.922782,81.9226695 689.226445,96.5896642 671.11,96.59 C662.3637,96.5874845 653.979282,93.0982155 647.813512,86.894906 C641.647741,80.6915964 638.209428,72.2861545 638.26,63.54 Z M695.68,63.54 C695.68,49.54 684.99,38.43 671.24,38.43 C657.49,38.43 646.79,49.58 646.79,63.54 C646.79,77.5 657.61,88.54 671.24,88.54 C684.87,88.54 695.68,77.51 695.68,63.54 Z" id="Shape" fill-rule="nonzero"></path>
            <polygon id="Path" points="806 31.51 783.47 95.57 775 95.57 757 42.79 739 95.57 730.6 95.57 708.2 31.51 716.6 31.51 734.81 83.66 753.14 31.51 760.77 31.51 779.11 83.66 797.44 31.51"></polygon>
            <g id="Mountain" transform="translate(0.000000, 14.000000)">
                <path d="M103.80367,147.307523 L6.04220183,147.307523 C3.83186268,147.306825 1.81234721,146.055146 0.828256881,144.075963 C-0.156555529,142.087456 0.0476042157,139.716062 1.35779817,137.925138 L100.667156,3.06862385 C101.762628,1.57755232 103.501332,0.69560101 105.35156,0.692477064 L105.35156,0.692477064 C107.182619,0.712722993 108.897573,1.59283166 109.981651,3.06862385 L158.862385,69.4513761 C160.781671,72.0601591 160.235908,75.7288993 157.640367,77.666055 C156.402213,78.5929529 154.845034,78.9867144 153.315111,78.7597759 C151.785188,78.5328373 150.40936,77.704013 149.493578,76.4576147 L105.35156,16.4293578 L17.6513761,135.548991 L103.80367,135.548991 C107.050699,135.548991 109.682935,138.181228 109.682935,141.428257 C109.682935,144.675286 107.050699,147.307523 103.80367,147.307523 Z" id="Path"></path>
                <path d="M302.395229,147.307523 C300.540217,147.308717 298.795553,146.4263 297.697248,144.931376 L203.09945,16.4293578 L108.501651,144.931376 C106.58531,147.511645 102.943913,148.057854 100.354862,146.153394 C97.7689529,144.203044 97.230489,140.536649 99.146422,137.925138 L198.415046,3.06862385 C199.509921,1.57735866 201.249416,0.696499802 203.09945,0.696499802 C204.949483,0.696499802 206.688978,1.57735866 207.783853,3.06862385 L307.066055,137.925138 C308.989709,140.534726 308.450366,144.207107 305.857615,146.153394 C304.857823,146.900803 303.643507,147.305575 302.395229,147.307523 Z" id="Path"></path>
                <path d="M166.751193,128.569908 C166.257365,128.012137 165.55608,127.681729 164.811556,127.656056 C164.067032,127.630383 163.344654,127.911698 162.813578,128.434128 L162.691376,128.569908 L149.031927,142.14789 C148.47941,142.633093 148.147275,143.321617 148.111448,144.056065 C148.075621,144.790513 148.339166,145.508095 148.841835,146.044771 C148.898254,146.114718 148.961979,146.178443 149.031927,146.234862 C149.509943,146.776551 150.184101,147.105438 150.905246,147.148758 C151.62639,147.192077 152.335072,146.946258 152.874495,146.465688 L153.091743,146.234862 L164.714495,134.652844 L176.350826,146.234862 C176.879385,146.782183 177.613318,147.082652 178.373945,147.063119 C179.132911,147.05331 179.860238,146.75753 180.410642,146.234862 C181.526078,145.205082 181.610646,143.471437 180.600734,142.337982 L180.410642,142.14789 L166.751193,128.569908 Z" id="Path"></path>
                <path d="M166.751193,113.539083 C166.255455,112.983158 165.553131,112.655263 164.808635,112.632158 C164.064139,112.609053 163.342834,112.892766 162.813578,113.416881 L162.691376,113.539083 L149.031927,127.198532 C148.47941,127.683736 148.147275,128.37226 148.111448,129.106707 C148.075621,129.841155 148.339166,130.558737 148.841835,131.095413 C148.90176,131.162124 148.965215,131.225579 149.031927,131.285505 C149.51183,131.825262 150.186982,132.15161 150.90808,132.192378 C151.629179,132.233147 152.336812,131.984979 152.874495,131.502752 C152.874495,131.502752 153.023853,131.366972 153.091743,131.285505 L164.714495,119.689908 L176.350826,131.285505 C176.88173,131.827837 177.615359,132.123258 178.373945,132.100183 C179.13321,132.105157 179.86426,131.812737 180.410642,131.285505 C181.519013,130.252434 181.603295,128.524666 180.600734,127.388624 L180.410642,127.198532 L166.751193,113.539083 Z" id="Path"></path>
                <path d="M166.751193,99.6488073 C166.255455,99.0928828 165.553131,98.764988 164.808635,98.7418829 C164.064139,98.7187779 163.342834,99.0024912 162.813578,99.5266055 L162.691376,99.6488073 L149.031927,113.321835 C147.913553,114.449341 147.913553,116.267723 149.031927,117.395229 C149.570069,117.939193 150.303449,118.245282 151.068624,118.245282 C151.833799,118.245282 152.567179,117.939193 153.105321,117.395229 L164.728073,105.813211 L176.364404,117.395229 C176.897637,117.932581 177.630968,118.222961 178.387523,118.19633 C179.143321,118.196571 179.871114,117.910306 180.42422,117.395229 C181.522897,116.359286 181.595191,114.636263 180.587156,113.511927 L180.397064,113.321835 L166.751193,99.6488073 Z" id="Path"></path>
                <path d="M205.149725,128.569908 C204.66525,128.025742 203.982432,127.699078 203.254727,127.663331 C202.527022,127.627584 201.815475,127.885753 201.28,128.379817 C201.210053,128.436236 201.146328,128.499961 201.089908,128.569908 L187.511927,142.14789 C186.95941,142.633093 186.627275,143.321617 186.591448,144.056065 C186.555621,144.790513 186.819166,145.508095 187.321835,146.044771 C187.378254,146.114718 187.441979,146.178443 187.511927,146.234862 C188.040486,146.782183 188.774419,147.082652 189.535046,147.063119 C190.294012,147.05331 191.021339,146.75753 191.571743,146.234862 L203.180917,134.652844 L214.80367,146.234862 C215.338111,146.785693 216.072876,147.096563 216.840367,147.096563 C217.607858,147.096563 218.342622,146.785693 218.877064,146.234862 C219.995437,145.107356 219.995437,143.288974 218.877064,142.161468 L205.149725,128.569908 Z" id="Path"></path>
                <path d="M205.149725,113.539083 C204.66525,112.994916 203.982432,112.668252 203.254727,112.632505 C202.527022,112.596758 201.815475,112.854927 201.28,113.348991 L201.089908,113.539083 L187.511927,127.198532 C186.687032,128.004664 186.438362,129.23293 186.884735,130.296438 C187.331109,131.359945 188.381912,132.042799 189.535046,132.018716 C190.294311,132.023689 191.025361,131.731269 191.571743,131.204037 L203.180917,119.60844 L214.80367,131.204037 C215.288144,131.748203 215.970962,132.074867 216.698667,132.110614 C217.426372,132.146361 218.137919,131.888192 218.673394,131.394128 C218.740106,131.334203 218.803561,131.270748 218.863486,131.204037 C219.981859,130.07653 219.981859,128.258149 218.863486,127.130642 L218.863486,127.130642 L205.149725,113.539083 Z" id="Path"></path>
                <path d="M205.149725,99.6488073 C204.66525,99.104641 203.982432,98.7779768 203.254727,98.7422299 C202.527022,98.706483 201.815475,98.964652 201.28,99.4587156 C201.213288,99.518641 201.149834,99.5820958 201.089908,99.6488073 L187.511927,113.321835 C186.95941,113.807038 186.627275,114.495562 186.591448,115.23001 C186.555621,115.964458 186.819166,116.68204 187.321835,117.218716 C187.38176,117.285427 187.445215,117.348882 187.511927,117.408807 C188.052232,117.93534 188.780743,118.22381 189.535046,118.209908 C190.290844,118.210149 191.018637,117.923884 191.571743,117.408807 L202.950092,105.826789 L214.53211,117.408807 C215.070252,117.952771 215.803632,118.25886 216.568807,118.25886 C217.333983,118.25886 218.067363,117.952771 218.605505,117.408807 C219.709318,116.275344 219.709318,114.468876 218.605505,113.335413 L205.149725,99.6488073 Z" id="Path"></path>
                <path d="M243.521101,128.569908 C243.036627,128.025742 242.353808,127.699078 241.626103,127.663331 C240.898398,127.627584 240.186851,127.885753 239.651376,128.379817 L239.461284,128.569908 L225.883303,142.14789 C225.330786,142.633093 224.998651,143.321617 224.962824,144.056065 C224.926998,144.790513 225.190542,145.508095 225.693211,146.044771 C225.74963,146.114718 225.813355,146.178443 225.883303,146.234862 C226.361319,146.776551 227.035477,147.105438 227.756622,147.148758 C228.477766,147.192077 229.186448,146.946258 229.725872,146.465688 L229.943119,146.234862 L241.565872,134.652844 L253.08,146.357064 C253.613233,146.894416 254.346564,147.184796 255.103119,147.158165 C255.861823,147.174196 256.59534,146.885679 257.139817,146.357064 C258.257708,145.313529 258.330284,143.565646 257.302752,142.433028 L257.139817,142.270092 L243.521101,128.569908 Z" id="Path"></path>
                <path d="M243.521101,113.539083 C243.036627,112.994916 242.353808,112.668252 241.626103,112.632505 C240.898398,112.596758 240.186851,112.854927 239.651376,113.348991 C239.594957,113.418938 239.531232,113.482663 239.461284,113.539083 L225.883303,127.198532 C225.330786,127.683736 224.998651,128.37226 224.962824,129.106707 C224.926998,129.841155 225.190542,130.558737 225.693211,131.095413 C225.753136,131.162124 225.816591,131.225579 225.883303,131.285505 C226.411079,131.817846 227.129643,132.117299 227.879266,132.117299 C228.628889,132.117299 229.347453,131.817846 229.875229,131.285505 L229.943119,131.285505 L241.565872,119.689908 L253.08,131.285505 C253.610905,131.827837 254.344534,132.123258 255.103119,132.100183 C255.863492,132.111078 256.596715,131.817789 257.139817,131.285505 C257.692333,130.800301 258.024468,130.111777 258.060295,129.377329 C258.096122,128.642881 257.832577,127.9253 257.329908,127.388624 L257.139817,127.198532 L243.521101,113.539083 Z" id="Path"></path>
                <path d="M243.521101,99.6488073 C243.036627,99.104641 242.353808,98.7779768 241.626103,98.7422299 C240.898398,98.706483 240.186851,98.964652 239.651376,99.4587156 C239.591451,99.5254272 239.527996,99.5888819 239.461284,99.6488073 L225.883303,113.321835 C224.76493,114.449341 224.76493,116.267723 225.883303,117.395229 C226.421445,117.939193 227.154825,118.245282 227.92,118.245282 C228.685175,118.245282 229.418555,117.939193 229.956697,117.395229 L241.57945,105.813211 L253.093578,117.395229 C253.626811,117.932581 254.360142,118.222961 255.116697,118.19633 C255.87301,118.199305 256.601773,117.912658 257.153394,117.395229 C257.705911,116.910026 258.038046,116.221502 258.073873,115.487054 C258.1097,114.752606 257.846155,114.035025 257.343486,113.498349 L257.153394,113.308257 L243.521101,99.6488073 Z" id="Path"></path>
            </g>
        </g>
        <path d="M392.017,170.512 C392.017,171.940007 391.439006,173.180995 390.283,174.235 C389.126994,175.289005 387.767008,175.816 386.203,175.816 C384.638992,175.816 383.313005,175.289005 382.225,174.235 C381.136995,173.180995 380.593,171.940007 380.593,170.512 C380.593,169.015993 381.136995,167.741005 382.225,166.687 C383.313005,165.632995 384.638992,165.106 386.203,165.106 C387.767008,165.106 389.126994,165.632995 390.283,166.687 C391.439006,167.741005 392.017,169.015993 392.017,170.512 Z M421.597,144.604 L421.597,160.924 C421.597,166.024025 422.089995,169.287993 423.076,170.716 C424.062005,172.144007 426.254983,172.858 429.655,172.858 L429.655,175 L406.297,175 L406.297,172.858 C409.697017,172.858 411.889995,172.144007 412.876,170.716 C413.862005,169.287993 414.355,166.024025 414.355,160.924 L414.355,144.604 L405.991,144.604 L405.991,141.034 L414.355,141.034 L414.355,131.242 C414.355,124.781968 415.969984,119.971016 419.2,116.809 C422.430016,113.646984 426.390977,112.066 431.083,112.066 C434.211016,112.066 436.692991,112.864992 438.529,114.463 C440.365009,116.061008 441.283,117.777991 441.283,119.614 C441.283,120.702005 440.994003,121.585997 440.416,122.266 C439.837997,122.946003 439.005005,123.286 437.917,123.286 C436.828995,123.286 435.979003,122.878004 435.367,122.062 C434.754997,121.245996 434.347001,120.345005 434.143,119.359 C433.938999,118.372995 433.429004,117.472004 432.613,116.656 C431.796996,115.839996 430.675007,115.432 429.247,115.432 C426.594987,115.432 424.657006,116.638988 423.433,119.053 C422.208994,121.467012 421.597,125.529971 421.597,131.242 L421.597,141.034 L431.797,141.034 L431.797,144.604 L421.597,144.604 Z M474.331,144.808 C478.41102,148.412018 480.451,152.797974 480.451,157.966 C480.451,163.134026 478.42802,167.553982 474.382,171.226 C470.33598,174.898018 465.491028,176.734 459.847,176.734 C454.202972,176.734 449.35802,174.898018 445.312,171.226 C441.26598,167.553982 439.243,163.134026 439.243,157.966 C439.243,152.797974 441.26598,148.395018 445.312,144.757 C449.35802,141.118982 454.202972,139.3 459.847,139.3 C465.491028,139.3 470.31898,141.135982 474.331,144.808 Z M469.027,168.676 C471.135011,165.887986 472.189,162.318022 472.189,157.966 C472.189,153.613978 471.135011,150.061014 469.027,147.307 C466.918989,144.552986 463.85902,143.176 459.847,143.176 C455.83498,143.176 452.775011,144.569986 450.667,147.358 C448.558989,150.146014 447.505,153.681979 447.505,157.966 C447.505,162.250021 448.558989,165.785986 450.667,168.574 C452.775011,171.362014 455.83498,172.756 459.847,172.756 C463.85902,172.756 466.918989,171.396014 469.027,168.676 Z M536.653,174.184 L522.985,176.734 C522.440997,175.645995 521.897003,173.470016 521.353,170.206 C517.136979,174.558022 512.683023,176.734 507.991,176.734 C499.558958,176.734 495.343,171.634051 495.343,161.434 L495.343,155.008 C495.343,149.907974 494.850005,146.644007 493.864,145.216 C492.877995,143.787993 490.685017,143.074 487.285,143.074 L487.285,141.034 L502.585,141.034 L502.585,160.924 C502.585,168.200036 505.168974,171.838 510.337,171.838 C512.649012,171.838 515.062987,170.86901 517.579,168.931 C520.095013,166.99299 521.353,164.596014 521.353,161.74 L521.353,155.008 C521.353,149.907974 520.860005,146.644007 519.874,145.216 C518.887995,143.787993 516.661017,143.074 513.193,143.074 L513.193,141.034 L528.493,141.034 L528.493,160.108 C528.493,165.208025 528.985995,168.471993 529.972,169.9 C530.958005,171.328007 533.184983,172.042 536.653,172.042 L536.653,174.184 Z M557.767,146.644 C561.643019,141.747976 566.368972,139.3 571.945,139.3 C576.365022,139.3 579.679989,140.693986 581.89,143.482 C584.100011,146.270014 585.205,149.941977 585.205,154.498 L585.205,160.924 C585.205,166.024025 585.697995,169.287993 586.684,170.716 C587.670005,172.144007 589.862983,172.858 593.263,172.858 L593.263,175 L569.905,175 L569.905,172.858 C573.237017,172.858 575.412995,172.127007 576.433,170.665 C577.453005,169.202993 577.963,165.956025 577.963,160.924 L577.963,155.008 C577.963,147.731964 575.141028,144.094 569.497,144.094 C566.572985,144.094 563.887012,145.11399 561.439,147.154 C558.990988,149.19401 557.767,151.573986 557.767,154.294 L557.767,160.924 C557.767,166.160026 558.174996,169.457993 558.991,170.818 C559.807004,172.178007 561.778984,172.858 564.907,172.858 L564.907,175 L542.467,175 L542.467,172.858 C545.867017,172.858 548.059995,172.144007 549.046,170.716 C550.032005,169.287993 550.525,166.024025 550.525,160.924 L550.525,155.824 C550.525,150.791975 550.032005,147.562007 549.046,146.134 C548.059995,144.705993 545.867017,143.992 542.467,143.992 L542.467,141.85 L556.033,139.3 C556.645003,140.592006 557.222997,143.039982 557.767,146.644 Z M630.289,164.596 L630.289,151.438 C629.336995,148.989988 627.943009,147.035007 626.107,145.573 C624.270991,144.110993 622.231011,143.38 619.987,143.38 C616.178981,143.38 613.28901,144.739986 611.317,147.46 C609.34499,150.180014 608.359,153.681979 608.359,157.966 C608.359,162.318022 609.34499,165.853986 611.317,168.574 C613.28901,171.294014 616.178981,172.654 619.987,172.654 C622.231011,172.654 624.270991,171.923007 626.107,170.461 C627.943009,168.998993 629.336995,167.044012 630.289,164.596 Z M630.289,145.318 L630.289,128.692 C630.289,123.591974 629.796005,120.328007 628.81,118.9 C627.823995,117.471993 625.631017,116.758 622.231,116.758 L622.231,114.616 L637.531,112.066 L637.531,160.108 C637.531,165.208025 638.023995,168.471993 639.01,169.9 C639.996005,171.328007 642.188983,172.042 645.589,172.042 L645.589,174.184 L632.023,176.734 C631.546998,175.713995 631.003003,173.640016 630.391,170.512 C627.058983,174.660021 622.877025,176.734 617.845,176.734 C613.016976,176.734 608.852018,174.898018 605.35,171.226 C601.847982,167.553982 600.097,163.134026 600.097,157.966 C600.097,152.797974 601.847982,148.395018 605.35,144.757 C608.852018,141.118982 613.016976,139.3 617.845,139.3 C622.877025,139.3 627.024984,141.30598 630.289,145.318 Z M687.001,172.96 C685.02899,175.068011 682.785013,176.122 680.269,176.122 C676.18898,176.122 673.877003,174.15002 673.333,170.206 C668.776977,174.28602 664.52702,176.326 660.583,176.326 C657.998987,176.326 655.823009,175.561008 654.055,174.031 C652.286991,172.500992 651.403,170.410013 651.403,167.758 C651.403,160.617964 658.644928,155.790013 673.129,153.274 C673.129,149.26198 672.687004,146.474008 671.803,144.91 C670.918996,143.345992 669.083014,142.564 666.295,142.564 C664.934993,142.564 663.626006,143.005996 662.368,143.89 C661.109994,144.774004 660.481,145.963993 660.481,147.46 C660.481,148.480005 660.141003,149.329997 659.461,150.01 C658.780997,150.690003 657.965005,151.03 657.013,151.03 C655.992995,151.03 655.143003,150.690003 654.463,150.01 C653.782997,149.329997 653.443,148.480005 653.443,147.46 C653.443,145.079988 654.751987,143.125008 657.37,141.595 C659.988013,140.064992 662.996983,139.3 666.397,139.3 C671.361025,139.3 674.930989,140.387989 677.107,142.564 C679.283011,144.740011 680.371,148.275976 680.371,153.172 L680.371,168.574 C680.371,171.226013 681.152992,172.552 682.717,172.552 C683.601004,172.552 684.552995,172.042005 685.573,171.022 L687.001,172.96 Z M673.129,166.84 L673.129,156.436 C663.744953,158.612011 659.053,161.977977 659.053,166.534 C659.053,168.098008 659.511995,169.355995 660.43,170.308 C661.348005,171.260005 662.486993,171.736 663.847,171.736 C666.363013,171.736 669.456982,170.104016 673.129,166.84 Z M696.793,144.604 L691.489,144.604 L691.489,142.156 C694.413015,141.543997 696.554993,140.21801 697.915,138.178 C699.275007,136.13799 700.158998,133.350018 700.567,129.814 L704.035,129.814 L704.035,141.034 L712.909,141.034 L712.909,144.604 L704.035,144.604 L704.035,165.004 C704.035,169.900024 705.564985,172.348 708.625,172.348 C710.59701,172.348 712.806988,171.192012 715.255,168.88 L716.989,170.614 C715.560993,172.314008 713.84401,173.707995 711.838,174.796 C709.83199,175.884005 707.979008,176.428 706.279,176.428 C703.354985,176.428 701.043009,175.47601 699.343,173.572 C697.642992,171.66799 696.793,168.812019 696.793,165.004 L696.793,144.604 Z M745.957,175 L722.599,175 L722.599,172.858 C725.999017,172.858 728.191995,172.144007 729.178,170.716 C730.164005,169.287993 730.657,166.024025 730.657,160.924 L730.657,155.824 C730.657,150.791975 730.164005,147.562007 729.178,146.134 C728.191995,144.705993 725.999017,143.992 722.599,143.992 L722.599,141.85 L737.899,139.3 L737.899,160.924 C737.899,166.024025 738.391995,169.287993 739.378,170.716 C740.364005,172.144007 742.556983,172.858 745.957,172.858 L745.957,175 Z M738.715,124.714 C738.715,126.006006 738.273004,127.093996 737.389,127.978 C736.504996,128.862004 735.451006,129.304 734.227,129.304 C733.002994,129.304 731.949004,128.862004 731.065,127.978 C730.180996,127.093996 729.739,126.006006 729.739,124.714 C729.739,123.489994 730.180996,122.436004 731.065,121.552 C731.949004,120.667996 733.002994,120.226 734.227,120.226 C735.451006,120.226 736.504996,120.667996 737.389,121.552 C738.273004,122.436004 738.715,123.489994 738.715,124.714 Z M787.879,144.808 C791.95902,148.412018 793.999,152.797974 793.999,157.966 C793.999,163.134026 791.97602,167.553982 787.93,171.226 C783.88398,174.898018 779.039028,176.734 773.395,176.734 C767.750972,176.734 762.90602,174.898018 758.86,171.226 C754.81398,167.553982 752.791,163.134026 752.791,157.966 C752.791,152.797974 754.81398,148.395018 758.86,144.757 C762.90602,141.118982 767.750972,139.3 773.395,139.3 C779.039028,139.3 783.86698,141.135982 787.879,144.808 Z M782.575,168.676 C784.683011,165.887986 785.737,162.318022 785.737,157.966 C785.737,153.613978 784.683011,150.061014 782.575,147.307 C780.466989,144.552986 777.40702,143.176 773.395,143.176 C769.38298,143.176 766.323011,144.569986 764.215,147.358 C762.106989,150.146014 761.053,153.681979 761.053,157.966 C761.053,162.250021 762.106989,165.785986 764.215,168.574 C766.323011,171.362014 769.38298,172.756 773.395,172.756 C777.40702,172.756 780.466989,171.396014 782.575,168.676 Z M818.071,146.644 C821.947019,141.747976 826.672972,139.3 832.249,139.3 C836.669022,139.3 839.983989,140.693986 842.194,143.482 C844.404011,146.270014 845.509,149.941977 845.509,154.498 L845.509,160.924 C845.509,166.024025 846.001995,169.287993 846.988,170.716 C847.974005,172.144007 850.166983,172.858 853.567,172.858 L853.567,175 L830.209,175 L830.209,172.858 C833.541017,172.858 835.716995,172.127007 836.737,170.665 C837.757005,169.202993 838.267,165.956025 838.267,160.924 L838.267,155.008 C838.267,147.731964 835.445028,144.094 829.801,144.094 C826.876985,144.094 824.191012,145.11399 821.743,147.154 C819.294988,149.19401 818.071,151.573986 818.071,154.294 L818.071,160.924 C818.071,166.160026 818.478996,169.457993 819.295,170.818 C820.111004,172.178007 822.082984,172.858 825.211,172.858 L825.211,175 L802.771,175 L802.771,172.858 C806.171017,172.858 808.363995,172.144007 809.35,170.716 C810.336005,169.287993 810.829,166.024025 810.829,160.924 L810.829,155.824 C810.829,150.791975 810.336005,147.562007 809.35,146.134 C808.363995,144.705993 806.171017,143.992 802.771,143.992 L802.771,141.85 L816.337,139.3 C816.949003,140.592006 817.526997,143.039982 818.071,146.644 Z" id=".foundation-copy" fill="#1A80AA"></path>
    </g>
</svg>